<mxfile host="app.diagrams.net" agent="Mozilla/5.0 (Windows NT 10.0; Win64; x64; rv:135.0) Gecko/20100101 Firefox/135.0" version="26.0.16">
  <diagram name="第 1 页" id="xyoQ07qHbTajlYGqZoyF">
    <mxGraphModel dx="1567" dy="845" grid="1" gridSize="10" guides="1" tooltips="1" connect="1" arrows="1" fold="1" page="1" pageScale="1" pageWidth="827" pageHeight="1169" background="none" math="0" shadow="1" adaptiveColors="auto">
      <root>
        <mxCell id="0" />
        <mxCell id="1" parent="0" />
        <mxCell id="LE9D-ZVGEivkodb4rcEc-5" style="edgeStyle=orthogonalEdgeStyle;rounded=1;orthogonalLoop=1;jettySize=auto;html=1;exitX=1;exitY=0.5;exitDx=0;exitDy=0;labelBackgroundColor=none;strokeColor=#0B4D6A;fontColor=default;" edge="1" parent="1" source="LE9D-ZVGEivkodb4rcEc-3" target="LE9D-ZVGEivkodb4rcEc-4">
          <mxGeometry relative="1" as="geometry" />
        </mxCell>
        <mxCell id="LE9D-ZVGEivkodb4rcEc-3" value="&lt;div&gt;手k数据&lt;/div&gt;&lt;div&gt;动捕数据&lt;/div&gt;" style="rounded=1;whiteSpace=wrap;html=1;arcSize=0;labelBackgroundColor=none;fillColor=#09555B;strokeColor=#BAC8D3;fontColor=#EEEEEE;" vertex="1" parent="1">
          <mxGeometry x="90" y="180" width="130" height="60" as="geometry" />
        </mxCell>
        <mxCell id="LE9D-ZVGEivkodb4rcEc-7" value="数据类型还需调整" style="edgeStyle=orthogonalEdgeStyle;rounded=1;orthogonalLoop=1;jettySize=auto;html=1;exitX=1;exitY=0.5;exitDx=0;exitDy=0;labelBackgroundColor=none;strokeColor=#0B4D6A;fontColor=default;" edge="1" parent="1" source="LE9D-ZVGEivkodb4rcEc-4" target="LE9D-ZVGEivkodb4rcEc-6">
          <mxGeometry relative="1" as="geometry" />
        </mxCell>
        <mxCell id="LE9D-ZVGEivkodb4rcEc-25" value="对标" style="rounded=1;orthogonalLoop=1;jettySize=auto;html=1;exitX=0.5;exitY=1;exitDx=0;exitDy=0;shape=link;labelBackgroundColor=none;strokeColor=#0B4D6A;fontColor=default;" edge="1" parent="1" source="LE9D-ZVGEivkodb4rcEc-4">
          <mxGeometry relative="1" as="geometry">
            <mxPoint x="329.7647058823529" y="340" as="targetPoint" />
          </mxGeometry>
        </mxCell>
        <mxCell id="LE9D-ZVGEivkodb4rcEc-33" value="&lt;div&gt;提取AI适用的形式&lt;/div&gt;" style="edgeStyle=orthogonalEdgeStyle;rounded=1;orthogonalLoop=1;jettySize=auto;html=1;exitX=1;exitY=0.5;exitDx=0;exitDy=0;labelBackgroundColor=none;strokeColor=#0B4D6A;fontColor=default;" edge="1" parent="1" source="LE9D-ZVGEivkodb4rcEc-10" target="LE9D-ZVGEivkodb4rcEc-6">
          <mxGeometry relative="1" as="geometry" />
        </mxCell>
        <mxCell id="LE9D-ZVGEivkodb4rcEc-4" value="fbx格式，或者其他格式的数据" style="rounded=1;whiteSpace=wrap;html=1;arcSize=0;labelBackgroundColor=none;fillColor=#09555B;strokeColor=#BAC8D3;fontColor=#EEEEEE;" vertex="1" parent="1">
          <mxGeometry x="270" y="180" width="120" height="60" as="geometry" />
        </mxCell>
        <mxCell id="LE9D-ZVGEivkodb4rcEc-13" style="edgeStyle=orthogonalEdgeStyle;rounded=1;orthogonalLoop=1;jettySize=auto;html=1;exitX=0.5;exitY=1;exitDx=0;exitDy=0;labelBackgroundColor=none;strokeColor=#0B4D6A;fontColor=default;" edge="1" parent="1" source="LE9D-ZVGEivkodb4rcEc-6" target="LE9D-ZVGEivkodb4rcEc-12">
          <mxGeometry relative="1" as="geometry" />
        </mxCell>
        <mxCell id="LE9D-ZVGEivkodb4rcEc-6" value="&lt;div&gt;AI训练&lt;/div&gt;" style="rounded=1;whiteSpace=wrap;html=1;arcSize=0;labelBackgroundColor=none;fillColor=#09555B;strokeColor=#BAC8D3;fontColor=#EEEEEE;" vertex="1" parent="1">
          <mxGeometry x="440" y="310" width="120" height="60" as="geometry" />
        </mxCell>
        <mxCell id="LE9D-ZVGEivkodb4rcEc-32" value="适应性调整" style="edgeStyle=orthogonalEdgeStyle;rounded=1;orthogonalLoop=1;jettySize=auto;html=1;exitX=1;exitY=0.25;exitDx=0;exitDy=0;labelBackgroundColor=none;strokeColor=#0B4D6A;fontColor=default;" edge="1" parent="1" source="LE9D-ZVGEivkodb4rcEc-9">
          <mxGeometry relative="1" as="geometry">
            <mxPoint x="330" y="340.0000000000001" as="targetPoint" />
          </mxGeometry>
        </mxCell>
        <mxCell id="LE9D-ZVGEivkodb4rcEc-9" value="输入指令或者放入视频or图片" style="rounded=1;whiteSpace=wrap;html=1;labelBackgroundColor=none;fillColor=#09555B;strokeColor=#BAC8D3;fontColor=#EEEEEE;" vertex="1" parent="1">
          <mxGeometry x="90" y="470" width="130" height="60" as="geometry" />
        </mxCell>
        <mxCell id="LE9D-ZVGEivkodb4rcEc-10" value="图片提取pose/视频逐帧提取pose获得视频或者图片中的pose" style="rounded=1;whiteSpace=wrap;html=1;arcSize=0;labelBackgroundColor=none;fillColor=#09555B;strokeColor=#BAC8D3;fontColor=#EEEEEE;" vertex="1" parent="1">
          <mxGeometry x="90" y="310" width="130" height="60" as="geometry" />
        </mxCell>
        <mxCell id="LE9D-ZVGEivkodb4rcEc-18" style="edgeStyle=orthogonalEdgeStyle;rounded=1;orthogonalLoop=1;jettySize=auto;html=1;exitX=1;exitY=0.5;exitDx=0;exitDy=0;labelBackgroundColor=none;strokeColor=#0B4D6A;fontColor=default;" edge="1" parent="1" source="LE9D-ZVGEivkodb4rcEc-12" target="LE9D-ZVGEivkodb4rcEc-16">
          <mxGeometry relative="1" as="geometry" />
        </mxCell>
        <mxCell id="LE9D-ZVGEivkodb4rcEc-31" value="直接输出动捕数据类型文件" style="edgeStyle=orthogonalEdgeStyle;rounded=1;orthogonalLoop=1;jettySize=auto;html=1;exitX=0.5;exitY=1;exitDx=0;exitDy=0;entryX=0.5;entryY=1;entryDx=0;entryDy=0;labelBackgroundColor=none;strokeColor=#0B4D6A;fontColor=default;" edge="1" parent="1" source="LE9D-ZVGEivkodb4rcEc-12" target="LE9D-ZVGEivkodb4rcEc-24">
          <mxGeometry relative="1" as="geometry" />
        </mxCell>
        <mxCell id="LE9D-ZVGEivkodb4rcEc-12" value="AI" style="rounded=1;whiteSpace=wrap;html=1;labelBackgroundColor=none;fillColor=#09555B;strokeColor=#BAC8D3;fontColor=#EEEEEE;" vertex="1" parent="1">
          <mxGeometry x="440" y="460" width="120" height="60" as="geometry" />
        </mxCell>
        <mxCell id="LE9D-ZVGEivkodb4rcEc-14" value="具备动画方向简单互动能力" style="rounded=1;orthogonalLoop=1;jettySize=auto;html=1;exitX=1;exitY=0.5;exitDx=0;exitDy=0;entryX=-0.002;entryY=0.64;entryDx=0;entryDy=0;entryPerimeter=0;labelBackgroundColor=none;strokeColor=#0B4D6A;fontColor=default;" edge="1" parent="1" source="LE9D-ZVGEivkodb4rcEc-9" target="LE9D-ZVGEivkodb4rcEc-12">
          <mxGeometry relative="1" as="geometry" />
        </mxCell>
        <mxCell id="LE9D-ZVGEivkodb4rcEc-20" value="通过额外脚本" style="edgeStyle=orthogonalEdgeStyle;rounded=1;orthogonalLoop=1;jettySize=auto;html=1;exitX=1;exitY=0.5;exitDx=0;exitDy=0;labelBackgroundColor=none;strokeColor=#0B4D6A;fontColor=default;" edge="1" parent="1" source="LE9D-ZVGEivkodb4rcEc-16" target="LE9D-ZVGEivkodb4rcEc-19">
          <mxGeometry relative="1" as="geometry" />
        </mxCell>
        <mxCell id="LE9D-ZVGEivkodb4rcEc-16" value="Ai输出的原始数据" style="rounded=1;whiteSpace=wrap;html=1;labelBackgroundColor=none;fillColor=#09555B;strokeColor=#BAC8D3;fontColor=#EEEEEE;" vertex="1" parent="1">
          <mxGeometry x="640" y="460" width="120" height="60" as="geometry" />
        </mxCell>
        <mxCell id="LE9D-ZVGEivkodb4rcEc-26" style="edgeStyle=orthogonalEdgeStyle;rounded=1;orthogonalLoop=1;jettySize=auto;html=1;exitX=1;exitY=0.5;exitDx=0;exitDy=0;labelBackgroundColor=none;strokeColor=#0B4D6A;fontColor=default;" edge="1" parent="1" source="LE9D-ZVGEivkodb4rcEc-19" target="LE9D-ZVGEivkodb4rcEc-24">
          <mxGeometry relative="1" as="geometry" />
        </mxCell>
        <mxCell id="LE9D-ZVGEivkodb4rcEc-19" value="转换DCC软件适合的格式或者数据类型&lt;br&gt;比如动捕数据" style="rounded=1;whiteSpace=wrap;html=1;labelBackgroundColor=none;fillColor=#09555B;strokeColor=#BAC8D3;fontColor=#EEEEEE;" vertex="1" parent="1">
          <mxGeometry x="900" y="460" width="120" height="60" as="geometry" />
        </mxCell>
        <mxCell id="LE9D-ZVGEivkodb4rcEc-27" value="矫正好的数据重新用于训练ai" style="edgeStyle=orthogonalEdgeStyle;rounded=1;orthogonalLoop=1;jettySize=auto;html=1;exitX=1;exitY=0.5;exitDx=0;exitDy=0;entryX=1;entryY=0.5;entryDx=0;entryDy=0;labelBackgroundColor=none;strokeColor=#0B4D6A;fontColor=default;" edge="1" parent="1" source="LE9D-ZVGEivkodb4rcEc-24" target="LE9D-ZVGEivkodb4rcEc-6">
          <mxGeometry relative="1" as="geometry" />
        </mxCell>
        <mxCell id="LE9D-ZVGEivkodb4rcEc-29" style="edgeStyle=orthogonalEdgeStyle;rounded=1;orthogonalLoop=1;jettySize=auto;html=1;exitX=1;exitY=0.5;exitDx=0;exitDy=0;labelBackgroundColor=none;strokeColor=#0B4D6A;fontColor=default;" edge="1" parent="1" source="LE9D-ZVGEivkodb4rcEc-24" target="LE9D-ZVGEivkodb4rcEc-28">
          <mxGeometry relative="1" as="geometry" />
        </mxCell>
        <mxCell id="LE9D-ZVGEivkodb4rcEc-24" value="以动捕数据形式引入到DCC软件中修复和调整" style="rounded=1;whiteSpace=wrap;html=1;labelBackgroundColor=none;fillColor=#09555B;strokeColor=#BAC8D3;fontColor=#EEEEEE;" vertex="1" parent="1">
          <mxGeometry x="1100" y="460" width="120" height="60" as="geometry" />
        </mxCell>
        <mxCell id="LE9D-ZVGEivkodb4rcEc-28" value="正常投入和使用" style="rounded=1;whiteSpace=wrap;html=1;labelBackgroundColor=none;fillColor=#09555B;strokeColor=#BAC8D3;fontColor=#EEEEEE;" vertex="1" parent="1">
          <mxGeometry x="1290" y="460" width="120" height="60" as="geometry" />
        </mxCell>
      </root>
    </mxGraphModel>
  </diagram>
</mxfile>
